<svg width="18" height="24" viewBox="0 0 18 24" fill="none" xmlns="http://www.w3.org/2000/svg">
    <path fill-rule="evenodd" clip-rule="evenodd" d="M4.98028 22H12.9488C13.4989 22 13.9448 22.4477 13.9448 23C13.9448 23.5128 13.5603 23.9355 13.0649 23.9933L12.9488 24H4.98028C4.43016 24 3.98421 23.5523 3.98421 23C3.98421 22.4872 4.36873 22.0645 4.86411 22.0067L4.98028 22H12.9488H4.98028ZM17.0338 10.6035C17.5836 10.6197 18.0163 11.0804 18.0002 11.6324C17.9583 13.0647 17.502 14.5824 16.728 15.9284C14.2525 20.233 8.76985 21.7079 4.48216 19.2226C1.73947 17.6329 0.0716868 14.7458 0.000874068 11.6258C-0.0116579 11.0737 0.42402 10.6159 0.973987 10.6033C1.52395 10.5907 1.97995 11.0281 1.99248 11.5803C2.04761 14.0091 3.34415 16.2536 5.47822 17.4906C8.81309 19.4236 13.0774 18.2764 15.0028 14.9284C15.6171 13.86 15.9771 12.6628 16.0089 11.5737C16.025 11.0217 16.4839 10.5873 17.0338 10.6035ZM8.96453 0C11.7151 0 13.9448 2.23858 13.9448 5V11.5C13.9448 14.2614 11.7151 16.5 8.96453 16.5C6.21397 16.5 3.98421 14.2614 3.98421 11.5V5C3.98421 2.23858 6.21397 0 8.96453 0Z" fill="#A5ABB3"/>
</svg>
