<svg width="66" height="78" viewBox="0 0 66 78" fill="none" xmlns="http://www.w3.org/2000/svg">
    <path d="M6.99818 73.5V69.5581L10.2482 64.3403H8.94691L6.47768 68.4092H6.37611L3.90688 64.3403H2.60561L5.85561 69.5581V73.5H6.99818ZM13.3738 73.6206C15.3225 73.6206 16.5285 72.2749 16.5285 70.0786C16.5285 67.876 15.3225 66.5366 13.3738 66.5366C11.425 66.5366 10.219 67.876 10.219 70.0786C10.219 72.2749 11.425 73.6206 13.3738 73.6206ZM13.3738 72.6367C12.0788 72.6367 11.3488 71.6973 11.3488 70.0786C11.3488 68.4536 12.0788 67.5205 13.3738 67.5205C14.6687 67.5205 15.3987 68.4536 15.3987 70.0786C15.3987 71.6973 14.6687 72.6367 13.3738 72.6367ZM23.6976 66.6572H22.6058V70.707C22.6058 71.9067 21.9456 72.624 20.7396 72.624C19.6478 72.624 19.1907 72.0527 19.1907 70.8213V66.6572H18.0989V71.0879C18.0989 72.7065 18.8987 73.6206 20.4349 73.6206C21.4822 73.6206 22.2122 73.189 22.555 72.4272H22.6565V73.5H23.6976V66.6572ZM25.6742 73.5H26.766V69.2598C26.766 68.2949 27.5214 67.5967 28.5624 67.5967C28.7782 67.5967 29.1718 67.6348 29.2606 67.6602V66.5684C29.121 66.5493 28.8925 66.5366 28.7147 66.5366C27.807 66.5366 27.0199 67.0063 26.8168 67.6729H26.7152V66.6572H25.6742V73.5ZM33.9756 68.5298C33.9756 69.52 34.5596 70.0723 35.8418 70.3833L37.0162 70.6689C37.7461 70.8467 38.1016 71.1641 38.1016 71.6338C38.1016 72.2622 37.4414 72.7002 36.521 72.7002C35.6451 72.7002 35.0992 72.332 34.9151 71.7544H33.7915C33.9121 72.8906 34.9595 73.6206 36.4829 73.6206C38.0381 73.6206 39.2251 72.7764 39.2251 71.5513C39.2251 70.5674 38.6031 70.0088 37.3145 69.6978L36.2608 69.4438C35.4546 69.2471 35.0738 68.9551 35.0738 68.4854C35.0738 67.876 35.7085 67.4634 36.521 67.4634C37.3462 67.4634 37.8794 67.8252 38.0254 68.3711H39.1045C38.9585 67.2476 37.962 66.5366 36.5274 66.5366C35.0738 66.5366 33.9756 67.3936 33.9756 68.5298ZM41.2526 64.8862V66.6572H40.1481V67.5713H41.2526V71.7227C41.2526 73.0303 41.8175 73.5508 43.2267 73.5508C43.4425 73.5508 43.652 73.5254 43.8678 73.4873V72.5669C43.6647 72.5859 43.5568 72.5923 43.36 72.5923C42.649 72.5923 42.3444 72.2495 42.3444 71.4434V67.5713H43.8678V66.6572H42.3444V64.8862H41.2526ZM48.1486 73.6206C50.0974 73.6206 51.3034 72.2749 51.3034 70.0786C51.3034 67.876 50.0974 66.5366 48.1486 66.5366C46.1999 66.5366 44.9938 67.876 44.9938 70.0786C44.9938 72.2749 46.1999 73.6206 48.1486 73.6206ZM48.1486 72.6367C46.8537 72.6367 46.1237 71.6973 46.1237 70.0786C46.1237 68.4536 46.8537 67.5205 48.1486 67.5205C49.4436 67.5205 50.1735 68.4536 50.1735 70.0786C50.1735 71.6973 49.4436 72.6367 48.1486 72.6367ZM52.9373 73.5H54.0291V69.2598C54.0291 68.2949 54.7845 67.5967 55.8255 67.5967C56.0413 67.5967 56.4348 67.6348 56.5237 67.6602V66.5684C56.3841 66.5493 56.1555 66.5366 55.9778 66.5366C55.0701 66.5366 54.283 67.0063 54.0799 67.6729H53.9783V66.6572H52.9373V73.5ZM58.3924 75.9756C59.6048 75.9756 60.1507 75.5059 60.7347 73.9189L63.4071 66.6572H62.2455L60.3729 72.2876H60.2713L58.3924 66.6572H57.2118L59.7445 73.5063L59.6175 73.9126C59.3319 74.7378 58.9891 75.0361 58.3607 75.0361C58.2084 75.0361 58.037 75.0298 57.9037 75.0044V75.9375C58.056 75.9629 58.2464 75.9756 58.3924 75.9756Z" fill="#A4AAB2"/>
    <path fill-rule="evenodd" clip-rule="evenodd" d="M33 52.5C47.3594 52.5 59 40.8594 59 26.5C59 12.1406 47.3594 0.5 33 0.5C18.6406 0.5 7 12.1406 7 26.5C7 40.8594 18.6406 52.5 33 52.5Z" fill="black" fill-opacity="0.04"/>
    <path d="M32.8722 16.2565L33 16.25C33.6472 16.25 34.1795 16.7419 34.2435 17.3722L34.25 17.5V25.25H42C42.6472 25.25 43.1795 25.7419 43.2435 26.3722L43.25 26.5C43.25 27.1472 42.7581 27.6795 42.1278 27.7435L42 27.75H34.25V35.5C34.25 36.1472 33.7581 36.6795 33.1278 36.7435L33 36.75C32.3528 36.75 31.8205 36.2581 31.7565 35.6278L31.75 35.5V27.75H24C23.3528 27.75 22.8205 27.2581 22.7565 26.6278L22.75 26.5C22.75 25.8528 23.2419 25.3205 23.8722 25.2565L24 25.25H31.75V17.5C31.75 16.8528 32.2419 16.3205 32.8722 16.2565L33 16.25L32.8722 16.2565Z" fill="black"/>
</svg>
